<svg xmlns="http://www.w3.org/2000/svg" viewBox="0 0 473.63 429.87"><g id="Capa_2" data-name="Capa 2"><g id="Ilusttrazioak"><g id="Borobil_full"><path d="M271.66,429.87h-1l-.15-.37h-27.4l-.35-.35c-.34.11-.74-.1-1.12.12l-.24.25-.38-.36H221.6l-.32-.31h-8.66l-.36-.37h-4.85l-.37-.36h-2.43l-.32-.33h-4.13s-.09-.06-.13-.09l-.25-.25h-2.42l-.38-.36h-3.1l-.31-.31h-2.43l-.37-.37h-2.42L188,426h-2.77l-.37-.36H183.1l-.29-.31h-2.07l-.39-.36H178l-.32-.31H175.2l-.36-.37h-1.39l-.31-.31c-.73-.11-1.47.06-2.16-.08l-.3-.3h-2.05s-.09-.07-.2-.17l-.17-.18h-1.73l-.39-.36h-1.69l-.42-.35h-1.34l-.33-.33h-2.08l-.3-.31-.77-.07-.3-.3h-2.06l-.39-.36H155.1l-.4-.36h-2l-.32-.32h-1l-.49-.39h-2l-.31-.31h-1.69s-.09-.06-.13-.09l-.25-.25c-.5,0-1,0-1.39,0l-.37-.34h-2.05l-.4-.36h-1.36l-.32-.32h-1.73l-.33-.33-1.09-.05-.35-.35h-1.39l-.31-.31h-1.72l-.38-.36h-1.72l-.25-.25c-.27-.24-.69.09-.94-.25s-.65-.22-1-.17c-.77.13-1.36-.43-2.08-.45-.08,0-.16-.15-.25-.25h-1l-.39-.35h-1l-.39-.36h-1l-.31-.32h-1.35l-.49-.39h-1l-.41-.32h-1l-.38-.34h-.66l-.38-.35h-.68l-.39-.36h-1l-.36-.31c-.39,0-.83.08-1.05-.1s-.64-.17-.93-.3a2.11,2.11,0,0,0-1.08-.33c-.12,0-.26-.2-.41-.33h-1l-.38-.35h-.68l-.38-.35c-.51.22-.83-.34-1.25-.32s-.86-.59-1.41-.37l-1.2-.69h-.94l-.38-.35h-.56a3.75,3.75,0,0,1-1-.51c-.3-.31-.66-.06-1-.24s-.63-.54-1-.57-.55-.47-.88-.39-.7-.3-1.07-.37-.63-.49-1.07-.34c-.63-.43-1.44-.43-2.06-.89a7.91,7.91,0,0,0-1-.5,2.73,2.73,0,0,0-.72-.33,1.51,1.51,0,0,1-.77-.26c-.33-.24-.83-.27-1.15-.53a11.46,11.46,0,0,0-1.15-.6c-.37-.22-.74-.52-1.23-.36-.34-.39-.87-.42-1.27-.69s-.61-.47-.83-.65a2.22,2.22,0,0,1-.75-.14,1.76,1.76,0,0,0-.59-.27c-.24-.07-.38-.42-.72-.33-.5-.34-1-.71-1.5-1a4.78,4.78,0,0,0-1.6-.74c-.09,0-.18-.13-.25-.22a2.85,2.85,0,0,0-1.24-.78,11,11,0,0,0-1.74-.81c-.28-.46-.81-.56-1.2-.86s-.8-.58-1.21-.85a4.22,4.22,0,0,1-.93-.63c-.28-.34-.72-.28-1-.59s-.53-.1-.72-.37a.86.86,0,0,0-.51-.4.88.88,0,0,1-.66-.47c-.2-.3-.56-.14-.73-.36-.6-.77-1.59-1.07-2.19-1.84-.18-.23-.54-.06-.72-.36s-.44-.64-.73-.71c-.56-.14-.81-.58-1.2-.88s-.93-.42-1.2-.87-.7-.31-.91-.56l-.12-.51-.5-.11-1.62-1.61A9.86,9.86,0,0,0,61,384a9.73,9.73,0,0,1-1.67-1.38l-1.59-1.59c-.37-.36-.69-.86-1.14-1s-.77-.62-1.09-.89l-.16-.51-.38,0a2.13,2.13,0,0,0-.75-1l-.34,0-.86-.86c-.24-.25-.51-.47-.73-.74s-.37-.67-.62-.95c-.55-.59-1.14-1.15-1.71-1.72l-1.71-1.71c-.15-.88-1-1.17-1.45-1.84l0-.35-1.72-1.69v-.31c-.24-.28-.61-.51-.65-.8-.08-.48-.46-.63-.7-.93a8.27,8.27,0,0,0-.74-.71.54.54,0,0,0-.23-.62,4.09,4.09,0,0,1-1.23-1.92,1,1,0,0,1-.91-.62c-.07-.41-.34-.57-.54-.82s-.47-.41-.51-.65c-.08-.47-.63-.59-.68-.93s-.41-.65-.65-.95-.31-.33-.42-.52c-.21-.37-.28-.88-.58-1.13a3,3,0,0,1-.68-1.12,9,9,0,0,0-.75-1.08c-.24-.34-.27-.83-.52-1.16s-.51-.71-.75-1.07a6.58,6.58,0,0,0-.73-1.08c-.45-.44-.6-1.05-1-1.5s-.43-1.1-.88-1.52-.49-1.08-.85-1.56c-.13-.16-.13-.42-.27-.58a3.88,3.88,0,0,0-.58-.49v-.8c-.23-.34-.73-.45-.68-1a13.44,13.44,0,0,1-1-2c-.35-.66-.71-1.32-1-2s-.72-1.32-1-2-.85-1.28-.78-2.09l-.6-.59a2.55,2.55,0,0,0-.16-.83c-.34-.61-.6-1.26-.93-1.87a5.05,5.05,0,0,1-.77-1.93c-.35-.17-.2-.61-.48-.86s-.17-.63-.48-.83c.13-.43-.47-.59-.37-1.07.05-.27-.19-.6-.32-.89s-.31-.36-.33-.55c0-.35,0-.69-.35-.9.19-.46-.55-.6-.36-1.07s-.32-.54-.37-.89-.33-.64-.36-1.07-.31-.65-.34-1.07a1.5,1.5,0,0,0-.42-.83c-.41-.32-.09-.77-.35-1.09-.4-.51-.5-1.19-.93-1.69.12-.78-.57-1.27-.7-2,0-.2-.35-.4-.32-.55.11-.55-.39-.88-.41-1.42s-.45-.85-.62-1.28c-.25-.65-.83-1.18-.72-2a1.06,1.06,0,0,1-.35-1.07c-.42-.24-.32-.82-.69-1.1-.12-.69-.81-1.18-.69-2-.5-.27-.18-.89-.47-1.18s-.11-.57-.35-.73-.06-.74-.26-.92c-.37-.32-.16-.8-.38-1.06s-.18-.63-.3-.92a2.29,2.29,0,0,1-.34-1.09c0-.11-.19-.26-.32-.41v-.65l-.36-.38v-.68l-.35-.39v-1l-.36-.41v-1c-.62-.55-.53-1.43-1-2.11v-.61l-.36-.38v-1L8,291.09v-1l-.39-.45c.39-.69-.4-1.21-.31-1.9,0-.16-.23-.36-.35-.53-.08-.35.14-.7-.06-1l-.26-.25v-1l-.36-.38v-1L6,283.12v-1.36l-.32-.32v-1l-.4-.5v-1.32L5,278.34c-.08-.73,0-1.48-.06-2.14l-.31-.31v-1.72l-.36-.39v-1l-.35-.4v-1.7l-.33-.32v-1l-.39-.5v-2.36l-.34-.34v-1.39l-.31-.3v-2.07L2.14,262v-1.7l-.35-.4v-1.7l-.33-.33v-2l-.31-.4v-1.07l.3-.3-.34-.36V251.3l-.33-.37.29-.29v-1.82l-.27-.27v-1.1l.27-.28V223.88l-.28-.29c-.06-.84,0-1.7,0-2.46l-.33-.32v-7.24L0,213l.47-.65-.3-1,.27-.27v-7.62l.33-.32c0-.79,0-1.6,0-2.41,0,0,.07-.08.15-.18l.2-.18V197.6l.35-.39v-2.4l.32-.32v-2.08l.37-.37v-2.77l.3-.3c.11-.73,0-1.48.09-2.16l.29-.3c0-.91,0-1.83,0-2.75,0,0,.07-.09.1-.13l.25-.25v-4.83l.35-.4v-2.74l.32-.32V173l.37-.37v-4.85l.34-.33V163c0-.05.06-.09.09-.14l.25-.25v-3.45l.36-.39v-2.05l.35-.4v-2L6,154v-1l.4-.5v-1.67l.28-.28c.08-.62,0-1.25.06-1.8l.31-.3V147l.36-.38v-1.36l.35-.4v-1l.33-.32v-1.73l.32-.33.06-1.09.29-.3c0-.39,0-.77,0-1.09l.32-.32V138l.36-.38v-1.7l.35-.41v-1l.35-.42c-.19-.77.4-1.37.42-2.09,0-.08.15-.16.24-.25v-1.37c.41-.26.31-.84.72-1.11v-1c.56-.23.13-.88.5-1.18.21-.18.17-.4.18-.62s-.1-.58.18-.79,0-.67.25-.94l.25-.25v-.68l.36-.38v-.68l.35-.38c-.27-.57.4-.9.35-1.42a.67.67,0,0,1,.17-.44c.23-.25.24-.59.45-.87s0-.79.4-1c0-.39-.06-.8.36-1.06-.15-.4.44-.54.33-.89S16,116,16,115.6a2.09,2.09,0,0,1,.53-1c.29-.29.37-.71.62-1s.11-.74.33-1.09a13.25,13.25,0,0,0,1.24-2.43c.16-.45.62-.61.75-1.08s.4-.77.56-1.15a3.86,3.86,0,0,1,.79-1.08v-.64c.33-.54,1-.78,1.09-1.48a4.12,4.12,0,0,0,1-1.5,2.13,2.13,0,0,1,.23-.42,1.8,1.8,0,0,0,.51-.83c.07-.35.59-.47.67-.94.06-.28.59-.49.61-.77.06-.54.65-.68.72-1.09.11-.59.68-.76.9-1.19a4,4,0,0,1,.74-1.09,3.47,3.47,0,0,0,.85-1c.19-.44.81-.71.95-1.16s.51-.61.63-1a2.1,2.1,0,0,1,.77-1.06c.37-.25.3-.71.6-1a1.59,1.59,0,0,0,.53-.82c.09-.33.55-.57.82-.87s.27-.7.6-1a6.06,6.06,0,0,0,1-1c.25-.29.39-.66.63-1a12.78,12.78,0,0,0,2-2.29,4.42,4.42,0,0,1,1.21-1.23c.5-.4.6-1.08,1.1-1.45a11.38,11.38,0,0,0,1.34-1.7c.55-.59,1.13-1.16,1.72-1.71.22-.21.24-.49.38-.71a.81.81,0,0,1,.88-.49c.37-.68,1.09-1.06,1.51-1.78a10.94,10.94,0,0,1,1.73-1.88l1.72-1.72c1.35-1.35,2.68-2.71,4-4,.3-.29.35-.68.6-1h.47c-.09-.66.51-.9.86-1.33.64,0,.93-.6,1.32-1,1.32-1.29,2.62-2.61,3.93-3.92h.39A1.73,1.73,0,0,1,60,60.5a12.58,12.58,0,0,1,2.44-2.33,2.35,2.35,0,0,0,1-1.05,2,2,0,0,1,1-1s.12,0,.18,0l.86-.87v-.46c.43.1.68-.2.95-.48s.66-.65,1-1l1-1a10.06,10.06,0,0,0,1-1c.29-.37.79-.39,1.1-.72.55-.59,1.18-1.11,1.7-1.73s1.37-.94,2-1.56a8.42,8.42,0,0,1,2.39-2.13c.59-.27.9-.94,1.56-1.26a5.83,5.83,0,0,0,1.49-1.41,4.86,4.86,0,0,1,1.8-1.1c.07-.2.13-.39.18-.56l.41,0,1.36-1.36h.74l1.29-1.33c.16-.16.34-.36.53-.39.47-.06.58-.63.93-.68s.64-.43.95-.65.52-.72,1.06-.79c.37,0,.48-.64.93-.66s.57-.66,1.09-.74c.33,0,.65-.45.88-.76s.53-.15.73-.35.42-.56.63-.55c.6,0,.67-.82,1.27-.73l1.13-1c.61,0,.79-.59,1.19-.87l.28-.16h.59l.68-.7c.44.11.61-.26.83-.5s.68-.13.85-.48.68-.33,1-.6.42-.13.58-.26a4.94,4.94,0,0,0,.51-.59h.79a5.89,5.89,0,0,1,.5-.5c.22-.18.34-.47.62-.53h.64c.21-.53.85-.58,1.24-1a10.33,10.33,0,0,1,1.54-.88c.24-.16.54-.16.73-.35a2.87,2.87,0,0,1,1.08-.73,5.83,5.83,0,0,0,1.15-.56c.5-.33,1.16-.45,1.45-1,.36-.05.69.06,1-.24s.65-.17.82-.5.61-.24.84-.49.66-.15.83-.49a.77.77,0,0,0,.71-.37h.7c.32-.22.49-.57.91-.73a4.16,4.16,0,0,1,1.23-.37l.62-.63h.72c.28-.59,1-.64,1.46-1.07h.67c.69-.17.75-.74,1.27-.67a1.1,1.1,0,0,1,1.07-.34c.19-.32.62-.26.83-.49s.66-.1.94-.24.62-.49,1-.58a3.59,3.59,0,0,0,1.22-.41c.31-.21.75-.25,1-.49s.63-.16.87-.46.82.11,1.05-.38a2.28,2.28,0,0,0,.86-.41s.12,0,.17,0,.42,0,.48-.08c.21-.33.65-.17.86-.47,0-.08.19-.1.28-.14H135c.18-.34.64-.24.83-.49.32-.42.94.06,1.21-.47,0-.09.31-.07.47-.08.34,0,.7.07.92-.3.64.13,1.09-.55,1.75-.39l.38-.35h1l.39-.35h.57l1.28-.72c.71.32,1.28-.42,2-.4.08,0,.16-.16.24-.24l1.1,0,.31-.32h1.38l.38-.35h.66l.41-.36h1l.33-.33H153l.51-.38h1l.35-.35h1.74l.3-.31h1l.38-.35h1.37l.32-.32h1.38l.37-.37h1.39l.36-.37h1.73l.37-.36h1.75l.28-.31h1.73l.39-.35H171l.32-.32h2.08l.37-.37h2.08l.3-.31c.73-.1,1.48.06,2.16-.08l.3-.3h2.75s.09-.07.13-.11.17-.15.25-.24h2.75l.4-.35h3.78L189,0h8.73l.32.32h8.66l.34.34h11.39s.09.06.13.09l.25.25h10l.38.34H231l.36-.32h1.37l.36.3h1l.37-.29.32.32h4.12s.09.06.13.09l.25.25h5.88l.39.36h2l.4.36h3.78l.33.32h4.46l.5.39h2l.28.28c1,.09,1.94,0,2.85.08l.29.29h3.8l.39.36h3.08l.41.36h1l.33.32H275l.37.37h1.73l.31.31c.73.06,1.47,0,2.13,0l.31.32h2.42l.39.36h2.05l.32.32h1.73l.37.36h1.34l.51.39h1l.3.3h1.71l.39.35h1.37l.38.36h1.37l.31.32h2.43l.32.32.78.09.28.28h1.36l.4.36h1l.38.35h1.37l.39.36h1l.45.38c.69-.39,1.21.41,1.9.32.16,0,.35.23.49.33h.94l.38.34h.67l.39.35h1.7l.4.36h1l.45.38c.75-.35,1.32.42,2.05.38.08,0,.16.15.28.26h1.69s.09.06.13.09l.25.25h1l.38.35h.67l.4.36h1l.39.32c.47.06,1-.17,1.3.31.69-.07,1.2.54,1.82.43l.31.31h1l.38.35h1.27l1.22.69c.42,0,.88-.15,1.27.29.2.22.68-.11.92.26s.68,0,.94.24l.24.25h.69l.38.35h.66l.36.32c.39,0,.83-.08,1.05.09s.63.18.92.3a2.19,2.19,0,0,0,1.09.34c.11,0,.26.2.41.32h.65l.38.36h.68l.37.34c.35,0,.68-.08,1,.26s.67-.08.93.25.6.21.85.48.64-.06.93.25a3.76,3.76,0,0,0,1,.5h.95c.12.28.43.27.66.4s.51.22.72.36a1.54,1.54,0,0,0,.75.29,2.67,2.67,0,0,1,.74.33h.8a8.84,8.84,0,0,1,1,.59c.22.17.44.05.65.1.36.09.63.5,1.07.35A1.9,1.9,0,0,0,354,25c.23.48.73.17,1.06.37l1,.61h1l.39.36h1.37c.25.44.71.25,1.06.39a7.76,7.76,0,0,1,1.11.64h.9c.11.1.26.32.35.3.46-.11.61.56,1.07.39.24.42.77.39,1.11.68a5.21,5.21,0,0,0,1,.43c.34.17.62.49,1,.58a4.17,4.17,0,0,1,1.17.54c.32.2.75.21,1,.54.42-.06.54.36.82.53s.66.35,1,.51h.48l.74.43.1-.14.56.73c.36,0,.65,0,.79.08.63.54,1.6.54,2,1.33h.62L379,36h1a4.48,4.48,0,0,0,.57.59c.16.13.4.15.58.26.65.39,1.44.56,1.92,1.22.51-.05.85.59,1.38.38a5.08,5.08,0,0,0,1.09.77,7.31,7.31,0,0,1,1.3.61,5.83,5.83,0,0,1,1.37.91c.28.28.78.33,1.16.52a2.9,2.9,0,0,1,.94.62c.31.38.84.31,1.12.69.08.11.33.07.44.16.3.24.51.62,1,.61.17.35.65.18.83.49s.62.44,1,.61a7.68,7.68,0,0,1,1.42.75,5.18,5.18,0,0,0,1.55.88c.29.11.49.6.76.63.42.06.61.54,1.05.43.24.25.51.48.73.74s.74.22,1,.61a1,1,0,0,0,.53.36c.35.14.6.56.95.64s.58.64.92.68a1.42,1.42,0,0,1,.94.66c.27.33.69.34,1,.6s.58.57.86.86c.66-.11.78.83,1.43.73L409,54.35h.17c.65.12.77,1,1.48,1l1.79,1.68.5.17.11.51.42.11c.85.61,1.31,1.54,2.28,1.86l1.84,1.84.55.18.11.51.62.2,0,.45.55.17c.2.2.64.44.74.78a2.58,2.58,0,0,0,1.45,1.45c0,.11,0,.22,0,.15l1.72,1.72.36.15v.42l2.08,2v.39l2.07,2v.36c.45.45.92.88,1.34,1.36s1,.74,1.11,1.44l1.35,1.34V77l1.72,1.72c0,.11,0,.22,0,.34.24.36.77.53.72,1.09l1,1c-.14.44.52.6.38,1a5.1,5.1,0,0,1,1.23,1.57c.1.3.45.43.54.82s.51.59.79.88c.07.08.21.18.2.26,0,.51.55.6.63,1s.47.74.76,1.08c-.19.46.55.6.37,1.06a3.87,3.87,0,0,1,1,1.48,12.54,12.54,0,0,1,.82,1.74l.42.11,1.4,2.74a2.14,2.14,0,0,0,.38.7c.4.34.44.89.8,1.24-.09.6.8.67.7,1.27.68,1,1.07,2.22,1.73,3.27-.07.58.83.65.69,1.27.38.21.34.67.58,1s.28.82.53,1.15.4,1.07.94,1.29c.1.32-.07.6.13.87a6.65,6.65,0,0,1,.73,1.43,6.4,6.4,0,0,1,.59,1.33,5.52,5.52,0,0,0,.66,1.45,6.76,6.76,0,0,0,1.42,2.32v1l.65.66c0,.23,0,.46,0,.69.07.08.19.15.23.25a2.82,2.82,0,0,1,.43,1c0,.38.31.61.35.9s.46.6.41,1.07a1.35,1.35,0,0,0,.43,1c.39.32,0,.82.36,1.07s.16.63.47.86-.09.67.25.93.15.65.49.84a.41.41,0,0,1,0,.32c-.12.4.4.58.34.89-.1.47.28.71.37,1.08s.32.48.32.72a1.27,1.27,0,0,0,.37.9c-.15.58.45,1,.36,1.59,0,.15.23.35.33.49v.94l.34.38v.66l.36.39v.67l.32.36c.07.3-.11.62.17.83s.13.53.2.79.39.51.36.9c0,.23.21.48.33.73v.87l.34.38v.67l.36.39v.67c.08.09.2.16.24.26.17.39,0,.9.44,1.2-.27.71.44,1.25.37,1.94,0,.12.18.26.31.42v1l.36.39v.67l.36.39v1.27c.26.46.47.83.71,1.27-.29.82.33,1.54.41,2.36,0,.09.15.16.29.31v1.38l.31.31v.69l.36.38v1.71l.31.32v1.73l.37.37v1.68l.39.51v1l.29.29v1.72l.36.38v1.37l.36.38v1l.31.32v1.73l.37.37v1l.37.37v1.73l.32.32c0,1,0,2.06,0,3.1,0,0,.06.08.15.19l.19.17v2.08l.36.39v2.05l.32.32v2.42l.36.37v2.43l.31.3a1.1,1.1,0,0,1,0,.16c0,.87,0,1.73,0,2.6,0,.05.05.09.08.14l.26.25v2.76s.07.08.11.13l.24.25v4.13l.36.4v3.78l.32.32v12.86l.36.14v.7c-.33,0-.36.2-.35.43s-.12.6.35.6v1.39l-.36.15v10.08l-.34.34v3.42c0,.05-.06.09-.09.13l-.25.25v3.46l-.36.38v4.82l-.35.4v3.44l-.33.32v4.81l-.39.5v3.39l-.31.31c0,.9,0,1.82,0,2.74,0,0-.06.09-.09.13l-.25.25v3.8l-.36.38v2.74l-.35.41v3.77l-.33.33V270l-.33.33v2.39l-.34.4-.05.72-.32.32v1.38l-.36.38v1.7l-.35.41v1l-.33.33v1.39l-.37.36v1.39l-.37.37v1.74l-.3.29v1.73L466,287v1l-.32.32v1.38l-.32.33-.08.78-.33.32v1.39l-.31.31v1l-.36.39v.67l-.36.39V297l-.33.39a8.9,8.9,0,0,1,0,.9c0,.27-.4.37-.35.72a3.43,3.43,0,0,1,0,.71l-.34.46c0,.4.08.75-.09,1.07-.09.08-.17.17-.25.25v1l-.36.38v.95c-.23.39-.44.71-.61,1.05a.87.87,0,0,0-.07.48c.05.42-.45.6-.39,1.08,0,.32-.25.68-.41,1-.07.15-.22.27-.24.42a1.22,1.22,0,0,1-.23.78c-.2.23-.21.61-.49.85v1c-.41.43-.47,1.07-1,1.34v1c-.14.23-.32.41-.34.61s-.29.34-.36.55,0,.52-.13.81c-.41.69-.71,1.44-1.13,2.12-.18.29-.07.55-.14.85l-.68.71c0,.19.07.41,0,.52-.61.85-.69,1.92-1.22,2.8a2,2,0,0,0-.47,1.68l-.75.5v.74a4.77,4.77,0,0,0-.5.52c-.1.12-.07.35-.18.44-.33.26-.3.69-.55,1a1.64,1.64,0,0,0-.44,1c0,.46-.41.67-.39,1.07-.49.71-.64,1.64-1.39,2.18v.7c-.29.34-.73.57-.74,1.09-.28.15-.2.54-.38.7-.38.34-.51.87-.86,1.2s-.39.78-.7,1.11a10.38,10.38,0,0,0-.87,1.19c-.29.4-.41.92-.86,1.21a.17.17,0,0,0-.08.13c-.05.45-.43.75-.53,1.17-.51.25-.44.91-.87,1.2s-.28.86-.73,1.08-.24.6-.48.85-.5.4-.55.82c0,.27-.42.5-.66.75.08.56-.62.66-.67,1.1s-.42.69-.71.91-.31.83-.71,1.12a2.28,2.28,0,0,0-.78,1c-.16.37-.52.68-.72,1.08a2.59,2.59,0,0,1-.85.86c-.38.29-.36.81-.72,1.1a5.32,5.32,0,0,0-.85.86c-.26.35-.36.79-.73,1.09-.19.15-.23.49-.39.69a11.5,11.5,0,0,1-.85.86,10.18,10.18,0,0,0-.73.74c-.23.3-.38.67-.62.95a15.15,15.15,0,0,0-2,2.3,5.2,5.2,0,0,1-1.45,1.47c-.61.46-.79,1.2-1.32,1.72-2.48,2.42-4.92,4.88-7.36,7.34a3.21,3.21,0,0,1-1,.72l-.13.46-.51.12-.21.62H418c-.35.35-.7.73-1.07,1.1a10.38,10.38,0,0,0-1.09,1.11c-.31.45-.85.5-1.22.84a9.71,9.71,0,0,1-2.29,2,3.46,3.46,0,0,0-1.1,1.09c-.32.43-.89.43-1.23.83-.48.58-1.05,1.08-1.58,1.61-.83.1-1.08,1.12-1.92,1.22-.4.41-.82.81-1.22,1.23s-1.06.59-1.46,1.09a2.14,2.14,0,0,1-1.06.78c-.39.13-.66.62-1,.94-.55,0-.7.62-1.09.69-.6.11-.8.61-1.19.91s-.63.17-.85.48-.46.64-.74.68a1.4,1.4,0,0,0-.82.56,2.82,2.82,0,0,1-.95.63c-.3.11-.52.45-.74.71a2.37,2.37,0,0,1-1.09.73,2.16,2.16,0,0,0-.58.25c-.23.18-.41.42-.62.61s-.53.78-1.08.73c-.48.65-1.36.79-1.83,1.47a.63.63,0,0,1-.41.23c-.45.07-.54.67-.93.68-.56,0-.61.68-1.1.71s-.6.49-.91.71a2.09,2.09,0,0,1-.55.36c-.3.11-.5.53-.79.59a2.35,2.35,0,0,0-.95.64c-.26.2-.62.18-.85.48s-.55.73-1.07.75a3,3,0,0,1-1.2.85,2.26,2.26,0,0,0-1,.61,2.21,2.21,0,0,1-.63.55c-.42.25-1,.26-1.27.69s-.83.31-1.1.72-.89.4-1.21.85c-.21.29-.68.3-1,.61s-.75.39-1.12.6c-.1.06-.24.08-.28.16-.26.49-.89.45-1.21.85-.62-.09-.72.69-1.26.72s-.55.76-1.1.7c-.54.56-1.35.77-1.86,1.39h-.67l-.5.5c-.16.16-.3.39-.49.47a1.57,1.57,0,0,0-.72.38,1.09,1.09,0,0,1-.53.39c-1,.28-1.65,1.21-2.68,1.46-.1,0-.16.17-.25.23s-.26.35-.54.39a2.45,2.45,0,0,0-.72.33c-.34.17-.77.26-1,.53-.33.43-.91.44-1.23.84-.62-.12-.71.71-1.26.71a10.69,10.69,0,0,1-2.08,1.24,3.51,3.51,0,0,0-.59.26,4.14,4.14,0,0,0-.5.59H354a6.78,6.78,0,0,1-.83.67c-.32.19-.69.28-1,.45s-.4.52-.79.62a2.6,2.6,0,0,0-1,.49c-.26.21-.68.13-.85.48-.43-.1-.61.48-1,.39-.22.37-.69.3-1,.57s-.61.2-.83.47a1.67,1.67,0,0,0-1.08.33,8.35,8.35,0,0,1-1.45.69c-.32.08-.48.52-.88.37s-.54.36-.9.35-.49.43-.88.41c-.15,0-.3.26-.56.29a9,9,0,0,0-2.32,1H338l-.38.35H337l-.39.34a6.4,6.4,0,0,0-.88,0c-.15,0-.28.27-.41.26-.73,0-1.3.71-2.06.38l-.43.38h-.66l-.38.36h-1l-.38.35H329l-.41.36h-1l-.44.36h-1.32l-.34.34h-2.08l-.32.32H320.7s-.08.07-.19.16l-.17.19h-1.73l-.39.35h-2.05l-.32.32H310l-.33.33h-.76l-.3-.3h-5.2l-.36.33h-1l-.37-.34h-.33l-.4.36h-19l-.32.32h-9.74ZM8.68,289.1l-.12-.22s-.11.08-.11.11a1.2,1.2,0,0,0,.11.23ZM26,334.73l-.12-.13a1.2,1.2,0,0,0-.11.23s.07.08.11.12Zm6.17,12-.23.12s.09.11.12.11a1.2,1.2,0,0,0,.23-.11Zm1.8,2.84-.12-.12a1.2,1.2,0,0,0-.11.23s.07.08.11.11Zm2.53,4.16.12.22s.12-.08.11-.11a1,1,0,0,0-.11-.23Zm10.64,15-.13-.22s-.11.09-.11.11a1,1,0,0,0,.11.24Zm7.27,7.87-.12-.12a1.2,1.2,0,0,0-.11.23s.07.08.11.11Z"/></g></g></g></svg>