<svg xmlns="http://www.w3.org/2000/svg" viewBox="0 0 473.63 430.77"><defs><style>.cls-1{fill:#1d1d1b;}</style></defs><g id="Capa_2" data-name="Capa 2"><g id="Brand_Guidelines" data-name="Brand Guidelines"><g id="Logotipos"><g id="Borobil_Light"><path class="cls-1" d="M197.33,0c3.6.27,7.19.73,10.79.77,15.78.19,31.56.49,47.24,2.14,18.49,2,36.87,4.47,55,9a435.23,435.23,0,0,1,45.35,14c23.54,8.74,45.52,20.26,63.88,37.64,11,10.43,19.53,22.85,26.83,36.18,12.5,22.83,19.66,47.39,23.71,72.87,3.27,20.52,4.51,41.22,2.58,62-1.17,12.7-1.66,25.5-3.66,38.07-3,18.7-7.44,37-16.23,54.17-13.31,25.94-32.91,46-56.22,62.91-16.56,12-33.48,23.45-51.92,32.39-11.7,5.67-24.25,7.62-37.17,7.78-12.16.16-24.32,1.09-36.46.74-22.53-.64-45.08.29-67.6-1.78-25.24-2.31-50.17-6.55-74.94-11.66-23.89-4.93-46.4-13.48-65.35-29.55-21.35-18.1-35.34-41.12-45.34-67C12.6,307.14,7.08,293.76,4.35,279.46,2.42,269.33-.26,259.17.07,248.85c.7-21.78-1.51-43.56,1.89-65.4,2.69-17.25,3.39-34.78,7.92-51.81,3.83-14.35,10.76-26.88,19.69-38.58,9.67-12.68,21-23.72,32.33-34.86A222.12,222.12,0,0,1,95.26,30.88c20.89-13.81,43.55-23.36,68.4-27.3,8.32-1.32,16.68-2.39,25-3.58ZM453.89,208.42A219.25,219.25,0,0,0,450.78,176c-3.18-19.89-8.35-39.25-17.07-57.54-7.66-16-17-30.93-30.07-43.11C386.93,59.71,367,49.51,345.79,41.42a330.72,330.72,0,0,0-62.68-17.28,359.07,359.07,0,0,0-53.6-5.26C210.69,18.53,192,17,173.08,20.07a171.57,171.57,0,0,0-79.67,35.4C80.83,65.4,69.88,77.09,58.54,88.37,37.2,109.58,25.59,135.31,22.8,165c-2.26,24-5.12,47.9-3.92,72.16.62,12.49,1.25,24.9,4.11,37,6.66,28.17,17,54.88,34.18,78.46A114,114,0,0,0,97.1,387.17c21.83,11.35,45.75,15.2,69.6,19.24,18.39,3.12,36.83,5.79,55.5,6.26q23,.57,46.07.59c11.17,0,22.35-.53,33.52-.7,9.92-.14,19.82-1.09,28.9-5.1,25.9-11.44,48.9-27.56,70.21-46,28.43-24.55,44.07-56.26,49-93.17C452.48,248.5,454.41,228.52,453.89,208.42Z"/></g></g></g></g></svg>