<svg xmlns="http://www.w3.org/2000/svg" viewBox="0 0 156.16 155.68"><g id="Capa_2" data-name="Capa 2"><g id="L-755"><path d="M155.65.06c.16,2.39.37,4.15.38,5.92,0,20.92.34,41.85-.1,62.76-.33,16.14-2.43,32-10,46.76-10.59,20.55-27.35,32.92-49.61,38-20.86,4.8-40.64,1.5-58.86-9.57A74.91,74.91,0,0,1,2.75,97.2C-3.76,71.93,1.37,48.84,17.21,28.28c9.67-12.55,22.85-20,38-24.15A113.31,113.31,0,0,1,86.14,0c21.08.19,42.16.06,63.24.06Zm-25,61.24-.43-.13c-.07-1.33,0-2.67-.22-4-1-6.6-5.33-10.77-11.42-11.15-6.91-.43-11.42,3.11-13.36,10.05a19.22,19.22,0,0,0,1.19,13.07c2,4.67,5.7,6.59,10.65,6.65,5.11.07,9.17-1.77,11.32-6.5C129.51,66.82,129.91,64,130.64,61.3ZM29.53,60.78c0,1,0,2,0,3,.36,7.41,4.79,11.93,11.78,12,7.43.12,12.42-4.16,13.08-11.4a38.41,38.41,0,0,0,0-7c-.74-8.31-7.95-13.17-16-10.89C32.29,48.29,29.5,52.74,29.53,60.78ZM82.67,47.32v27.2h5.22c.24-3.46.46-6.59.75-10.58,3.07,3.79,5.38,6.78,7.85,9.64,2,2.29,4.31,2.85,7.25.78L93.89,60.55c2-4.76,6.6-7.86,8.24-12.85-3.58-1.54-5.83-.51-7.69,2.14-1.7,2.42-3.56,4.74-5.71,7.56-.51-3.94-.9-7-1.3-10.08Zm28.14,38.92c-7.65-2.55-7.34,5.32-11.09,7.66l-5.94-9-5,1.4c2.46,4.74,4.73,9.09,7,13.44l-7.54,13.63h5.83l5.41-8c1.8,2.61,3,4.75,4.59,6.6,2.14,2.56,3.79,2.75,6.83,1.09l-7.52-13.52ZM73.89,62.57l.29-4.12-8.28-.84V51.43c2.78-.16,5.2-.28,7.61-.43,2.13-.13,4-.54,3.31-3.74H60.31c-1.26,5.62-1,23.77.26,27.3H78.18l-1.53-3.43L66,70.34V63.16ZM66.76,86c-.2,9.57-.47,18.41.14,27.36H85.2L83.72,110l-10.8-.76v-7.13l8.26-.77-.3-4.16-8-.69V89.83c2.53,0,4.65,0,6.76,0s4.47.2,4.42-3.78A113.6,113.6,0,0,0,66.76,86Zm-18,4.44v22.84h5.38c1.09-7.78-.43-15.39.78-21.9,2.83-2.73,7.81.44,8.26-5.55-7.08,0-13.81-.1-20.53.12-1,0-1.91,1.6-3.78,3.29Zm71.43,9.19a7.32,7.32,0,0,0,7-7.47,7,7,0,1,0-13.94.56A6.88,6.88,0,0,0,120.16,99.66Z"/><path d="M124.61,61.16a49.43,49.43,0,0,1-2,6.57,5.81,5.81,0,0,1-10.6-.37,15.29,15.29,0,0,1-.16-12.53A5.94,5.94,0,0,1,117.69,51,5.48,5.48,0,0,1,123,54.78,50.79,50.79,0,0,1,124.61,61.16Z"/><path d="M35.18,61.6A50.87,50.87,0,0,1,36,55.54,5.91,5.91,0,0,1,41.29,51c2.66-.38,4.43,1.06,5.8,3.09,2.23,3.31,2,11-.29,14.29a5.81,5.81,0,0,1-10.17-.67C35.68,65.68,35.56,63.27,35.18,61.6Z"/><path d="M120.51,86.94c4.08,2,5.22,3.64,4.67,6.52a5.23,5.23,0,0,1-4.73,4.31c-2.74.25-4.09-.9-5.76-4.94C115,89.24,116.84,87.18,120.51,86.94ZM118.45,89c-.13,2.23-.21,3.82-.3,5.37l4.09.83c-.1-1.89-.2-3.75-.31-5.86Z"/><path d="M119.72,90.93l.51-.53a3.84,3.84,0,0,1,.42.63s-.22.31-.27.29A5,5,0,0,1,119.72,90.93Z"/></g></g></svg>