<svg xmlns="http://www.w3.org/2000/svg" viewBox="0 0 1155.36 492.24"><g id="Capa_2" data-name="Capa 2"><g id="L-755"><g id="_1MH0Au.tif" data-name="1MH0Au.tif"><path d="M86.77,217.33H548.54Q582.82,108.76,617.14,0h538.22c-31.36,91.78-62.59,183.15-93.95,274.9H727.13c-7.74,0-6.44-.86-8.75,6.47Q685.82,384.55,653.3,487.75c-.44,1.41-1,2.78-1.64,4.49H0C29,400.41,57.81,309.08,86.77,217.33ZM135.33,372.1l.14,0a27,27,0,0,1,.14-4.94c3.41-16.55,6.94-33.08,10.4-49.62q3.51-16.8,6.91-33.6c1.06-5.21-.9-8.69-6.16-9.42a52.72,52.72,0,0,0-12.86.1c-5.66.6-8.85,4.25-9.84,9.74q-5.11,28.13-10.14,56.27-4.8,26.67-9.6,53.34c-1.91,10.77-4,21.52-5.53,32.34-1.27,8.82,5.24,14.11,13.94,12,6.26-1.52,10.33-5.54,13.84-10.64q25.16-36.57,50.5-73c.7-1,1.53-1.95,2.35-3,0,7.79.12,15.26,0,22.73-.35,17.62-1,35.23-1.19,52.85-.1,8.66,6.39,13.2,14.86,11,6.2-1.61,10.45-5.61,13.37-11.14,4.72-9,9.39-17.95,14.08-26.92Q249.36,345,278.17,289.85a36.68,36.68,0,0,0,3.09-7.29c1.13-4.19-.44-7.12-4.69-7.66-4.7-.6-9.55-.28-14.32-.12-3.61.13-6.15,2.34-8.09,5.18a44.65,44.65,0,0,0-2.68,4.78Q230.2,325.87,208.93,367c-.69,1.34-1.44,2.65-2.16,4a138.57,138.57,0,0,1,.51-19.21c.84-10.75,1.79-21.5,2.6-32.26.57-7.62,1.2-15.25,1.38-22.88.15-7-5.8-11.51-12.71-10.2a21,21,0,0,0-14.34,9.83c-11.78,18.3-23.69,36.53-35.51,54.81C144.19,358.06,139.79,365.09,135.33,372.1ZM983.2,152.71a50.37,50.37,0,0,1,1,5c.71,8.1,1.2,16.22,2,24.31.78,7.78,2.15,15.48,6,22.44,3.52,6.42,8.6,11.15,16.12,12a113.28,113.28,0,0,0,16.88.67,8.38,8.38,0,0,0,7.7-5.54,88.76,88.76,0,0,0,3.67-11.85c1-4.19-.78-6.33-5.09-6.71a62.47,62.47,0,0,0-8-.07c-3.29.13-5.54-1.38-6.53-4.33a44.71,44.71,0,0,1-2.33-9.62c-1-10-1.69-20.12-2.52-30.33a21,21,0,0,1,2.2-1.14c11.45-4.41,20-12.21,24.55-23.46,5.36-13.36,10.11-27,14.13-40.84,3.46-11.88-2.63-22.1-14.4-25.76a59.28,59.28,0,0,0-15.57-3c-14.3-.42-28.63-.27-42.94-.11-5.21.06-9.21,2.55-11.23,7.61-.56,1.38-1.09,2.78-1.58,4.19Q947.41,123,927.6,179.81c-3.12,8.92-6.35,17.81-9.26,26.79-2,6.16.11,9.21,6.47,9.91a74.7,74.7,0,0,0,9.46.41c8.5-.15,11.59-2.39,14.4-10.34q8.52-24.15,17-48.33c.65-1.85,1.41-3.65,2.15-5.54Zm-390.63,216c12.58-4.42,21.89-12.39,26.74-24.31a409.07,409.07,0,0,0,14-40.37c3.64-12.61-2.6-22.83-15.37-26.47a71,71,0,0,0-17.13-2.66c-12.81-.38-25.64-.13-38.47-.11-8.15,0-11.2,2.21-13.93,10Q528,343.3,507.54,401.78c-2.85,8.14-5.81,16.24-8.52,24.42-2.31,7,.27,10.57,7.59,10.8,2.82.1,5.66,0,8.49,0,8.13,0,11.2-2.19,14-10,5.65-15.94,11.23-31.91,16.85-47.86.71-2,1.51-4,2.37-6.19,4,0,7.85-.05,11.66,0,4,.06,4.23.23,4.58,4.18.73,8.1,1.23,16.22,2,24.32.68,7.11,1.93,14.14,4.82,20.75,3.74,8.55,9.91,14.1,19.47,15a120.1,120.1,0,0,0,14.44.52,8.74,8.74,0,0,0,8.15-5.7,88.1,88.1,0,0,0,3.72-12.37c.83-3.57-.95-5.76-4.63-6.07-2.48-.2-5,0-7.49-.08-4.72-.11-6.59-1.33-8.12-5.83A36.4,36.4,0,0,1,595,399.5C594.08,389.43,593.39,379.33,592.57,368.75Zm200.35-188c-.79,5.66-1.54,10.74-2.2,15.83-.53,4.11-1.21,8.23-1.35,12.36-.16,4.74,2,7.19,6.74,7.5s9.29.18,13.93,0,7.78-2.76,8.79-7.35a84.51,84.51,0,0,0,1.16-8.86q1.9-17.56,3.75-35.14c1.11-10.56,2.15-21.13,3.28-31.69,1.19-11.22,2.47-22.43,3.65-33.65,1.17-11.05,1.78-22.19,3.52-33.15,1.19-7.52-2.47-12.13-10.24-12.25-4.33-.06-8.67.2-13-.06-8.05-.5-13.47,3-17.5,9.86Q753,133.15,712.27,202a45.12,45.12,0,0,0-3,5.7c-1.93,4.61-.19,8,4.79,8.66a86.11,86.11,0,0,0,11.92.25c5.74-.06,9.65-3.14,12.38-7.93,2.22-3.89,4.34-7.84,6.54-11.75,3.07-5.47,6.18-10.92,9.16-16.19ZM448.64,401.37c-.16,1.76-.25,3.21-.44,4.65-1,7.23-2.05,14.45-2.9,21.7-.7,6,2,9,8.14,9.26,3.66.13,7.33.11,11,0,6.47-.19,9.82-3.08,10.64-9.5,1.12-8.89,2-17.81,3-26.72.81-7.59,1.56-15.19,2.36-22.78q1.8-17.07,3.63-34.15c1.2-11.22,2.44-22.43,3.59-33.66.87-8.41,1.85-16.83,2.39-25.27.44-7-2.56-9.9-9.76-10-4.66-.1-9.34.21-14-.08-7.69-.47-12.84,2.79-16.7,9.37Q408.63,354,367.44,423.75a27.26,27.26,0,0,0-2.52,4.85c-1.59,4.65.56,8,5.47,8.36,3,.23,6-.14,9,.11,7.46.65,12.26-2.82,15.65-9.16,4.15-7.76,8.74-15.29,12.76-23.12,1.56-3,3.46-3.81,6.65-3.75,9.82.19,19.64.06,29.47.08C445.35,401.12,446.81,401.27,448.64,401.37ZM337.25,300.24H379.8c4.75,0,9.18-1.15,11.42-5.63a60,60,0,0,0,4.24-12.16c.85-3.4-.75-5.79-4.21-6.84a22.23,22.23,0,0,0-6.37-.74q-29-.09-57.94,0c-9.14,0-12.09,2.12-15.07,10.65q-13.25,38.06-26.52,76.09c-7.53,21.6-15.14,43.18-22.59,64.82-2.32,6.75.2,10.52,7.19,10.57,19.31.15,38.63.12,57.94,0a10.63,10.63,0,0,0,10.46-7.11,78.37,78.37,0,0,0,3.14-9.43c1.06-4.12-.53-6.79-4.7-7.81a32.15,32.15,0,0,0-7.39-.83c-10.13-.09-20.27,0-31.07,0l15.39-43.66h5.77c9.65,0,19.31,0,29,0,5,0,9.35-1.48,11.63-6.21a57,57,0,0,0,3.84-10.74c1-3.83-.7-6.43-4.56-7.54a24.12,24.12,0,0,0-6.38-.87c-8.65-.1-17.31,0-26-.06-1.25,0-2.49-.23-4.32-.4C327.62,328.06,332.37,314.32,337.25,300.24ZM688.35,79.75h6.07c13.66,0,27.31,0,41,0,8.79,0,12.2-2.46,15.16-10.77.44-1.25.77-2.54,1.25-3.78,2.62-6.91-.95-10.16-7.27-10.79a22.94,22.94,0,0,0-2.49,0q-32.47,0-64.94,0a22,22,0,0,0-4.45.38c-6.06,1.25-8.3,5.9-10.12,11.15q-19.32,55.69-38.8,111.32c-3.44,9.87-7,19.71-10.19,29.64-1.91,5.89.2,9,6.26,9.63a74.58,74.58,0,0,0,10.46.42c7.84-.25,10.93-2.6,13.58-10.08,4.38-12.34,8.7-24.71,13-37.07,2.59-7.33,5.2-14.65,7.86-22.13H670c10.82,0,21.65-.05,32.47,0,4.47,0,8.48-1.23,10.61-5.25a45.16,45.16,0,0,0,4-11.17c.84-3.8-.84-6-4.61-7a29.61,29.61,0,0,0-6.89-.85c-9-.09-18,0-27-.06-1.55,0-3.1-.22-5.2-.38C678.49,108.19,683.36,94.13,688.35,79.75ZM856.6,217.12c11.82-.18,14.87-2.33,18.7-13.29q15.08-43.2,30.16-86.38c6.06-17.37,12.18-34.73,18.09-52.15,2.34-6.91-.26-10.46-7.57-10.91-2.49-.15-5,0-7.49,0-8.91,0-12.33,2.4-15.2,10.64Q869.16,134.24,845,203.51a33.76,33.76,0,0,0-1.63,5.21c-.71,4.08,1.18,6.84,5.27,7.6C851.27,216.8,854,216.87,856.6,217.12Z"/><polygon points="135.33 372.1 135.11 372.09 135.47 372.12 135.33 372.1"/><path d="M976.2,128.32l16.92-48.6c7,.3,14-.68,20.86.78,5.17,1.09,6.68,3.14,6.35,8.37a15.08,15.08,0,0,1-.63,3.92c-2.71,7.83-5.36,15.69-8.33,23.42-3.09,8-9.29,11.87-17.76,12.08C988.14,128.43,982.66,128.32,976.2,128.32Z"/><path d="M556.68,348.83l16.77-48.4c6.83,0,13.63-.42,20.34.13,5.6.46,7.58,3.69,6.92,9.38a20.05,20.05,0,0,1-.92,4.35c-2.36,6.89-4.79,13.75-7.21,20.62-3.25,9.27-10,13.69-19.64,13.9C567.82,348.92,562.68,348.83,556.68,348.83Z"/><path d="M767.53,155.9c12.58-22.19,24.82-43.81,37.07-65.42l.85.24c-2.92,21.67-5.83,43.34-8.78,65.18Z"/><path d="M452.51,376.45H423.29L461,309.79l.45.21Z"/></g></g></g></svg>