<svg xmlns="http://www.w3.org/2000/svg" viewBox="0 0 819.69 299.02"><g id="Capa_2" data-name="Capa 2"><g id="L-755"><g id="yyWHex.tif"><path d="M53.63,299A37,37,0,0,0,50,297.68C35.8,293.89,26.79,284.82,22.6,270.8c-2.54-8.54-2.68-17.25-2.55-26.1.31-19.59.2-39.19,0-58.78a93.57,93.57,0,0,0-1.61-14.81,36.34,36.34,0,0,0-2.82-8.47c-2.47-5.54-6.31-9.69-12.5-11.2A17.92,17.92,0,0,1,0,149.8c1.26-1,2-1.93,2.9-2.14,7.26-1.72,11.14-6.86,13.67-13.3a54.85,54.85,0,0,0,3.55-20C20.2,94,20.38,73.52,20,53.1c-.14-8.54.21-16.9,2.63-25.1C28,9.87,43.87-1.11,63.3.33a20,20,0,0,1-2.53,1.59c-3.19,1.36-6.58,2.35-9.59,4C41.94,11.1,38.05,19.74,36.72,29.67a156.14,156.14,0,0,0-1.49,18.82c-.2,16.94.2,33.88-.17,50.81A287.92,287.92,0,0,1,32.75,128c-1.16,9.54-6.34,16.57-15.15,20.77-.23.11-.32.51-.42.69,2.75,2.08,5.68,3.93,8.18,6.24,5.42,5,7.35,11.8,8.14,18.8.84,7.58,1.5,15.21,1.59,22.82.23,18.26-.15,36.54.19,54.8a135.38,135.38,0,0,0,2.44,21.68c2.14,11.72,9.65,18.88,20.75,22.65A41.62,41.62,0,0,1,63.61,299Z"/><path d="M756.77,299c.89-.64,1.68-1.62,2.67-1.88,14.67-3.82,22.29-13.67,24.17-28.27a137.92,137.92,0,0,0,1.24-16.36c.15-17.93-.23-35.87.17-53.8a256.62,256.62,0,0,1,2.53-28.2c1.26-9.33,6.45-16.17,15.09-20.24.23-.11.32-.52.54-.91a67.94,67.94,0,0,1-5.72-3.68c-5.11-4.07-8.81-9.25-9.65-15.76A287.28,287.28,0,0,1,785,100.25c-.44-18.26,0-36.54-.22-54.8a130.2,130.2,0,0,0-2-18.75c-2.12-13.25-10.35-21.06-23-24.69a17,17,0,0,1-2.26-.92c-.09,0-.08-.3-.27-1.09a75.26,75.26,0,0,1,8.22.44c17.92,2.93,28.76,13.53,32.92,31a60.18,60.18,0,0,1,1.69,13.29c.18,19.27,0,38.53.09,57.8,0,6.62,0,13.27.56,19.85a55.2,55.2,0,0,0,2.91,12c2.54,7.74,8.09,12.3,16,14.13v2c-11.21,2.39-15.78,10.55-18,20.72,0,.16,0,.32-.09.48-1.91,8.66-1.56,17.41-1.42,26.2.28,18.4.22,36.8,0,55.19a67.92,67.92,0,0,1-1.9,15.23c-3.92,15.83-13.59,26.18-29.91,29.75a5.7,5.7,0,0,0-1.58.93Z"/><path d="M683,214.37V146.9h11.74v97.48l-69.12-72.14-1,.48V240H613.3c-1.07-3.35-1.48-88.92-.32-97.63l69,72.11Z"/><path d="M435.34,162.61l-8,8a18.49,18.49,0,0,1-2.1-1.78c-14-15.93-35.86-17.28-51-4.91-16.2,13.24-18.88,35.94-6.25,52.67,8.3,11,19.23,16.71,33.32,14.68,12.4-1.79,23.19-12.17,25.57-24.21a22.67,22.67,0,0,0,.17-2.91H403.32V193.56H440A42.77,42.77,0,0,1,435.89,218c-11.72,24.8-43.93,32.75-66.69,16.21-16.5-12-23.71-28.55-20.19-48.68,3.63-20.75,16.21-34.4,36.77-39.39C405.27,141.45,421.73,147.72,435.34,162.61Z"/><path d="M479.23,240.14l44.65-97.3c15.29,32.72,29.74,64.76,44.91,97.53H556l-10.66-23H502.56L492,240.14Zm45.32-69.71-1.16-.16-15.75,35.86h32.62C534.91,194,529.73,182.21,524.55,170.43Z"/><path d="M263.86,229.59h38.25v10.88H251.89V147.34c3.36-1,41.24-1.38,50.26-.41v10.56H263.89v25.9H301V194.5H263.86Z"/><path d="M165.73,245c-13.47-32.56-26.95-65.12-40.61-98.13h13.15c9.14,22.55,18.33,45.24,27.92,68.92,9.47-23.46,18.61-46.12,27.79-68.89h13c-6.5,16.82-13.49,33-20.18,49.28s-13.36,32.44-20.05,48.66Z"/><path d="M517.13,101.82c-10.93,0-18.52-8-18.55-19.61S506.12,62.52,517,62.38s19.09,8.43,18.89,19.92S528,101.85,517.13,101.82Zm11.28-19.2a44.2,44.2,0,0,0-1.52-5.91c-1.74-4.16-4.87-6.68-9.49-6.89-4.24-.2-8.28,2.66-10,6.9a13.76,13.76,0,0,0,.86,12.44c3.68,6.59,12.81,7.3,17,1.2C526.89,88,527.5,85,528.41,82.62Z"/><path d="M666.39,63.65a41.63,41.63,0,0,1,15.87.56c8,2.06,13.12,10.2,12.54,19.25S688,99.71,679.6,100.57c-4.25.44-8.58.08-13.21.08ZM674,93.84c4.69.6,8.48-.3,11.08-4.22s2.62-11.38-.11-15.14-6.41-4.76-11-4.35Z"/><path d="M217.21,63h10.4V99.53H220l-.73-5.26h-7.5l-3,5.33h-9.32C205.46,87.16,211.31,75.12,217.21,63Zm2,22.93V79.34l-.73-.12-3,6.9Z"/><path d="M474.38,100.63h-9l-7.64-12.27-.93.2v11.91h-7.52V63.13c4.91.27,9.72.23,14.42.9a8.54,8.54,0,0,1,7.37,7.18c.91,4.43.57,8.65-3.05,11.92a27.44,27.44,0,0,1-3.69,2.34C467.59,90.36,470.84,95.26,474.38,100.63ZM456.93,70.16c-.24,3.43-.89,6.88.5,10.28,5.17-.73,7-2.55,6.59-6.23C463.62,70.89,461.76,69.77,456.93,70.16Z"/><path d="M303.4,62.46h5.87c4.64,12.51,9.33,25.13,14.15,38.14h-7.81l-3.28-7.51H300l-3.25,7.41h-7.83Zm3,12.84h-.87c-1.09,3.61-2.19,7.22-3.35,11.07h8.1C308.89,82.39,307.64,78.84,306.4,75.3Z"/><path d="M137.26,87.55c-1.19,4.28-2.21,7.92-3.32,11.91h-8.46l9.86-36.7c4.54,0,8.7-.25,12.81.06,5.83.43,8.93,4.17,8.75,10-.27,8.82-5.94,14.46-14.83,14.76C140.59,87.6,139.11,87.55,137.26,87.55Zm9.92-16.75H142c-.57,2-1,3.57-1.47,5.14-.29,1.09-.52,2.2-.78,3.31C146.79,80.35,149.46,77.53,147.18,70.8Z"/><path d="M618.46,63.61h19v6l-11.44.52v7.57h11v6.64h-10.9v9.68h11.31v6.37h-19Z"/><path d="M356.89,87.22v13.26h-7.36V63.14c5,.27,10,.12,14.82.9,5.6.9,8.15,5.26,7.88,12-.24,6.09-3.41,9.88-9,10.66C361.3,87,359.34,87,356.89,87.22Zm7.21-15a5.83,5.83,0,0,0-6.93-2v11l6.93-2.11Z"/><path d="M399.51,63.13c5,.28,10,.15,14.83.92,5.38.87,8,5.26,7.83,11.64-.17,6.18-3.26,10.11-8.76,11-1.94.3-3.93.3-6.57.49v13.47h-7.33Zm7.42,17.43c3.06.24,5.86.2,6.75-2.52a9.31,9.31,0,0,0-.46-6.47c-1.15-2.28-3.78-2-6.29-1.35Z"/><path d="M578.3,101.62h-4.65c-4.63-12.4-9.28-24.89-14.15-37.93h8.07l8.86,24.39c2.91-8.69,5.52-16.51,8.19-24.47h8.09Z"/><path d="M192.29,100h-9.11c2.46-9.53,4.84-18.71,7.3-28.25l-6.33-.84c.2-1.38.31-2.65.6-3.88s.77-2.51,1.23-4h24.49c-.75,2.76-1.45,5.35-2.17,8L200,71.6C197.37,81.23,194.83,90.62,192.29,100Z"/><path d="M162.8,82.11c-2.84,8.16-1.71,12,4,14.32,4.54-1.41,4.95-1.69,9.14-6.3-.24,2.61-.8,3.86-3.34,6.2a19.54,19.54,0,0,1-4.41,3.18c-7.19,3.58-12.33.67-12.64-7.26-.42-11,3.12-20.27,12.47-26.62a16.76,16.76,0,0,1,7.78-2.75c4.63-.34,7.31,3.3,6.34,7.85-.71,3.38-3,5.46-6,6.85a64.35,64.35,0,0,1-6.48,2.52C167.5,80.84,165.25,81.4,162.8,82.11Zm.6-2.49c11.86-3.13,15.72-7.52,13.21-14.36-2.72-1.46-4.71-.18-6.42,1.83A37.75,37.75,0,0,0,163.4,79.62Z"/><path d="M254.55,87.41V82.06h11.74c.07,1.64.14,3.33.23,5.35Z"/></g></g></g></svg>