<svg xmlns="http://www.w3.org/2000/svg" viewBox="0 0 186.75 187.39"><g id="Capa_2" data-name="Capa 2"><g id="L-755"><path d="M93.33,164.15c-38.31.86-70.64-32-70.62-70.33,0-37,30.09-70.76,71-70.62,39.79.15,70.42,33,70.34,70.75C164,132.85,131.29,165.08,93.33,164.15Zm-.86-61.53q0-16.7,0-33.38c0-2.37-.21-4.54-2.09-6.38q-7.11-7-14-14.17c-1.82-1.92-3.15-1.72-4.92.06C59.31,61,47.06,73.16,34.87,85.4c-2.39,2.41-2.35,2.67.2,5.18,4.61,4.54,9.37,8.94,13.94,13.52,1.68,1.68,3,1.68,4.56,0q4.14-4.32,8.46-8.45a47,47,0,0,1,3.77-2.94c.12,1.61.34,3.22.34,4.84,0,12.62,0,25.23,0,37.85,0,5.39,0,5.4,5.59,5.42,5.14,0,10.29,0,15.44,0s5.25-.07,5.27-5.34C92.5,124.54,92.47,113.58,92.47,102.62Zm1.86-.48c0,11.45,0,22.9,0,34.36,0,4,.37,4.27,4.27,4.32,5.8.06,11.62.06,17.42,0,4.55,0,4.57-.11,4.65-4.87,0-1,0-2,0-3q0-19.17,0-38.35a11,11,0,0,1,.32-1.85,6.57,6.57,0,0,1,1.64.87c3.33,3.24,6.59,6.56,9.93,9.79,2.84,2.76,2.92,2.76,5.57.24Q145,97.15,151.8,90.53c2.52-2.48,2.56-2.72.1-5.19C139.72,73.11,127.47,61,115.3,48.7c-1.82-1.84-3.17-1.81-4.93,0-4.13,4.32-8.27,8.64-12.63,12.72a10.3,10.3,0,0,0-3.48,8.33C94.42,80.56,94.32,91.35,94.33,102.14Z"/><path d="M51.72,17.71c-.83-1.76-1.7-3.5-2.47-5.29a1.33,1.33,0,0,1,.18-1.21c.3-.18,1.11-.12,1.26.12q2.88,4.59,5.6,9.29c.16.29-.09,1.19-.32,1.26a3.49,3.49,0,0,1-2.17.17c-2.41-1-4.74-2.19-7.09-3.31l-.93-.34.65.62c.93,1.88,1.91,3.74,2.73,5.68.15.37-.37,1-.58,1.55-.37-.21-.88-.33-1.08-.64-1.71-2.79-3.39-5.6-5-8.44-.29-.5-.5-1.6-.3-1.73a3.47,3.47,0,0,1,2.21-.61A13.45,13.45,0,0,1,47.07,16c1.47.66,3,1.28,4.43,1.91l.89.36Z"/><path d="M180,95.57c1.65.1,3.31.1,4.93.36.69.11,1.72.67,1.82,1.18a2.39,2.39,0,0,1-1,2c-2.14,1.22-4.41,2.22-6.62,3.33a4.8,4.8,0,0,0-.74.56c.34.22.64.59,1,.65,2,.31,3.92.51,5.86.86.25,0,.46.74.52,1.15,0,.16-.46.56-.69.55-3.61-.27-7.26-.37-10.82-1-1.58-.27-1.25-1.87-.09-2.55,2.27-1.32,4.7-2.37,7-3.58.39-.21.62-.69.93-1a4.46,4.46,0,0,0-1.2-.47c-1.81-.15-3.63-.16-5.43-.39-.41-.06-.74-.81-1.1-1.25.38-.22.76-.65,1.14-.64,1.48,0,3,.18,4.44.29Z"/><path d="M151.66,149.72c.41.36.94.75,1.38,1.21,1.25,1.33,2.54,2.62,3.67,4s3.07,3.37,2.69,4.16a8.32,8.32,0,0,1-6.57,4.72c-2.9.38-6.08-2.36-6.63-5.52-.51-3,2.33-8,4.82-8.5Zm-.41,2.42a16.77,16.77,0,0,0-1.85,1.46c-1.9,2.1-1.6,4.89.71,6.88a4.3,4.3,0,0,0,6.13-.27c1.76-2.05-.62-2.78-1.43-3.91C153.78,154.86,152.51,153.59,151.25,152.14Z"/><path d="M88.71,174.29c3.62.11,5.83,2.7,5.7,6.68-.14,4.13-2.71,6.64-6.58,6.4-3.46-.21-5.45-2.56-5.42-6.39C82.44,176.8,84.91,174.18,88.71,174.29Zm3.42,6.5c.05-2.52-1.38-4.5-3.38-4.66-2.33-.2-4.19,2.06-4.13,5,0,2.51,1.59,4.39,3.63,4.42S92.08,183.56,92.13,180.79Z"/><path d="M177.14,123.43a6.55,6.55,0,0,1-5.69-3.5c-1.33-2.69-.7-5.47.49-8.06a2.21,2.21,0,0,1,2-.61c2.87.69,5.71,1.5,8.51,2.4a2.77,2.77,0,0,1,1.66,1.51C185.06,118.64,181.19,123.45,177.14,123.43Zm-.53-2.32c3.38-.08,4.82-1.38,5.34-3.44.66-2.61-1.86-2.12-3.13-2.74a10.4,10.4,0,0,0-2.83-.77c-.9-.14-2.53-.4-2.64-.12-.45,1.13-1,2.83-.49,3.6A19.45,19.45,0,0,0,176.61,121.11Z"/><path d="M4.28,120.46c.32-.44,1.46-2.4,1.71-2.29,3.6,1.54,6-5.67,9.71-1.36a8.57,8.57,0,0,1,1.84,4,3.13,3.13,0,0,1-1.39,2.56,47.49,47.49,0,0,1-6.08,2.13C6.05,126.77,4.31,125.51,4.28,120.46Zm8.31,2.41,3.05-2.77-2.21-2.32c-.69.74-1.68,1.38-2,2.25C11.25,120.62,12,121.54,12.59,122.87ZM8,119.47c-.82,1-1.81,1.67-1.8,2.33a2.47,2.47,0,0,0,1.6,1.84c.63,0,1.87-.94,1.89-1.52S8.76,120.63,8,119.47Z"/><path d="M10.74,136c0-3.53,3.47-6.63,7.36-6.55a5.79,5.79,0,0,1,5.75,5.67c.16,3.56-3.21,6.83-7.08,6.87A6,6,0,0,1,10.74,136ZM21.89,135a3.44,3.44,0,0,0-3.5-3.35c-2.76,0-5.91,2.77-5.67,5.1s1.68,3,3.75,3C19.26,139.59,21.9,137.28,21.89,135Z"/><path d="M18.59,39a13.9,13.9,0,0,1,1.33-3.35,7.61,7.61,0,0,1,2.75-2.28c1.69,1.57-.6,2-1.11,3-1.38,2.58-1.29,4.53.6,6.27s4.5,1.93,6.25.19a3.27,3.27,0,0,0,.86-2.48c-.07-.51-1.19-1-1.92-1.22a6.41,6.41,0,0,0-2.18.24,8.71,8.71,0,0,1,1.35-2.42,2.07,2.07,0,0,1,2-.17c1.24,1.3,4,1.5,3.36,4.24s-4.33,5.62-7,5.44C21.56,46.18,18.65,43.12,18.59,39Z"/><path d="M41.89,158.24a6.71,6.71,0,0,1-5,6.12,7.41,7.41,0,0,1-7.81-3.16c-.21-.33-.07-.87-.1-1.31.43,0,1-.11,1.26.1a19.69,19.69,0,0,0,2.73,2.1c2.28,1,4.21.28,5.67-1.69a4.14,4.14,0,0,0-.33-5.83,2.59,2.59,0,0,0-2.08-.72,3.26,3.26,0,0,0-1.43,1.85,8.53,8.53,0,0,0-.24,2.28c-.66-.46-1.63-.8-1.91-1.43a2.69,2.69,0,0,1,.16-2.43C34,153,34.54,150.6,37,151.36A7.77,7.77,0,0,1,41.89,158.24Z"/><path d="M16.61,68.54a5.72,5.72,0,0,1-5.76,6.13c-4.19.15-7.43-2.6-7.42-6.31A5.48,5.48,0,0,1,8.9,62.52C13.11,62.27,16.49,64.92,16.61,68.54Zm-1.88.27c-.15-2.23-3.17-4.31-5.94-4.09-2.3.18-3.82,1.84-3.53,3.85s3.08,4,5.65,3.9A3.67,3.67,0,0,0,14.73,68.81Z"/><path d="M19,59.76a92.4,92.4,0,0,1-9.6-5.49c-.4-.28.91-3.44,1.85-5s3.22-2.24,4.24-.87c1.89,2.55,4.29,3.17,7.05,3.54.33,0,.58.63.87,1-.34.29-.67.8-1,.82-1.15,0-2.32-.24-3.45-.09A2.7,2.7,0,0,0,17,54.78c-.18.4.49,1.37,1,1.86s1.43.82,2,1.36c.23.2.2.83.1,1.21C20.08,59.4,19.59,59.48,19,59.76Zm-2.63-7.65c-1.15-.81-2.09-2-2.77-1.83s-1.39,1.44-2.07,2.24a9.2,9.2,0,0,0,2.63,1.88C14.51,54.51,15.31,53.2,16.33,52.11Z"/><path d="M162.86,143.81a30.24,30.24,0,0,1-2.8-2.55c-.32-.38-.25-1.09-.36-1.64.6,0,1.36-.19,1.77.1a66.6,66.6,0,0,1,6,4.47c1,.85,3.4,1.37,2.12,3.21a18.61,18.61,0,0,1-5,4.38c-.41.27-2.28-.56-2.45-1.18-.77-2.65-2.8-3.25-5-3.87-.62-.17-1.06-1-1.58-1.52a6.67,6.67,0,0,1,2.15-.54c1.12.09,2.22.67,3.32.66C161.51,145.32,162.07,144.47,162.86,143.81Zm1.67.95c-.64,1.13-1.55,2-1.39,2.63.21.81,1.25,1.41,1.94,2.09.68-.74,2-1.62,1.9-2.19C166.8,146.43,165.6,145.79,164.53,144.76Z"/><path d="M65.93,178.79c.36-2.55,1-5.28,3.69-5.95,2.22-.57,4.76.06,7.15.27.21,0,.35.79.52,1.21a4.77,4.77,0,0,1-1.27.22,22.5,22.5,0,0,0-3.4-.5c-2.55.11-3.78,1.76-4.14,4.13A4.1,4.1,0,0,0,71.1,183c.67.28,2,.38,2.25,0a3.71,3.71,0,0,0,.56-2.59c-.08-.66-2.15-1.25-.2-1.88a3.12,3.12,0,0,1,2.73,1.33,4,4,0,0,1-4.66,5.31C68.23,184.46,65.88,181.92,65.93,178.79Z"/><path d="M13.12,100.51A13.66,13.66,0,0,1,12,102.23c-3,3.13-2.87,3.77.68,5.79a7.72,7.72,0,0,1,1.58,1.64,6.18,6.18,0,0,1-2.12.46c-3.1-.47-6.19-1-9.24-1.68A3.09,3.09,0,0,1,1,106.74a2.23,2.23,0,0,1,.93-2c3.19-1.7,6.47-3.25,9.75-4.78C11.92,99.87,12.41,100.24,13.12,100.51ZM6.9,107.6c.54-.57,1.23-1,1.36-1.55.08-.38-.77-1.39-1-1.34a21.18,21.18,0,0,0-3,1.32Z"/><path d="M174.46,136.57c-3.64-.54-6.58-.91-9.48-1.47-.58-.11-1-1-1.52-1.47a5.65,5.65,0,0,1,1.54-.83c4.29-.69,4.63-1.38,2.65-5.38a5.44,5.44,0,0,1-.2-1.79,5.55,5.55,0,0,1,2,.69c2.17,2,4.33,4,6.31,6.24.65.71,1.25,2.16.94,2.86S174.89,136.38,174.46,136.57Zm-2.56-6.4c-1.21,1.51-1.49,1.85-1.77,2.19,1,.63,1.88,1.28,2.85,1.85.06,0,.68-.58.63-.71C173.15,132.46,172.59,131.47,171.9,130.17Z"/><path d="M37,34.75s-.19.67-.39,1.37c-.56-.41-1.37-.7-1.64-1.25-1.35-2.84-2.64-5.71-3.76-8.65a2.93,2.93,0,0,1,.36-2.58,2.81,2.81,0,0,1,2.58-.14c2.79,1.46,5.49,3.08,8.15,4.77.52.33.7,1.19,1,1.81a8.51,8.51,0,0,1-2.19.06C37.6,29.31,36.41,30.35,37,34.75Zm-2.79-9c-.21.7-.54,1.22-.4,1.44.56.91.31,2.84,2.27,2.14A2,2,0,0,0,36.89,28,30,30,0,0,0,34.19,25.76Z"/><path d="M175,79.59c3.27.71,6.36,1.29,9.38,2.11A2.68,2.68,0,0,1,186,83.56a3,3,0,0,1-1.52,2.12c-2.8,1.41-5.68,2.64-8.57,3.85-.47.2-1.13-.07-1.7-.13.18-.56.2-1.28.57-1.66,3.36-3.48,3.35-3.74-.46-6.16-.45-.29-.66-.92-1-1.4Zm8.12,4.53c-.9-.6-1.38-1.2-1.84-1.18a8.77,8.77,0,0,0-2.3.73,15.52,15.52,0,0,0,.59,1.59A36.41,36.41,0,0,0,183.1,84.12Z"/><path d="M163.71,35.47c-.49,1.72-1,2.66-.93,3.54.07.72.94,1.33,1.26,2.08.14.33-.18.86-.3,1.31a2.63,2.63,0,0,1-.85-.36c-.6-.57-1-1.41-1.71-1.75s-1.78-.33-2.11,0a3.34,3.34,0,0,0-.72,2.44c.1.73.94,1.33,1.32,2a3.52,3.52,0,0,1,.12,1.32,4.13,4.13,0,0,1-1.55-.45,12.17,12.17,0,0,1-1.58-1.9c-2.22-2.8-2.23-2.81.35-4.94,1.15-1,2.34-1.84,3.51-2.77,4.31-3.38,5.33-3.18,7.89,1.68a3.39,3.39,0,0,1,.11,1.29c-.52-.1-1.18,0-1.55-.34C166,37.94,165.23,37,163.71,35.47Z"/><path d="M127.3,6.57c-.63.76-.87,1.26-1.27,1.48-3.49,1.95-4.06,4.81-2.71,8.32a.78.78,0,0,1,.07.49c-.2.51-.43,1-.65,1.51a6.36,6.36,0,0,1-1.3-1.29,7,7,0,0,1-.47-1.91c-.45-2.22-1.37-2.33-2.78-.68a3.86,3.86,0,0,1-1.52,1.23,4.86,4.86,0,0,1-1.85-.21,10.7,10.7,0,0,1,.59-1.23,2.47,2.47,0,0,1,.73-.67c2.73-1.86,4.07-4.15,2.63-7.53-.23-.53.28-1.38.44-2.08a11.78,11.78,0,0,1,1.61,1.54A3,3,0,0,1,121.15,7c.17,1.62.73,2.08,2.09.85a10.91,10.91,0,0,1,2.35-1.72C125.93,5.93,126.56,6.35,127.3,6.57Z"/><path d="M108.48,14.51c-.76-.18-1.08-.28-1.41-.32-4.79-.7-4.78-.69-4-5.39a52.87,52.87,0,0,1,.85-5.38c.26-.91,1.24-2.31,1.87-2.3A25,25,0,0,1,111,2.18c-.19.37-.31,1-.6,1.06s-1-.21-1.44-.09c-1,.25-2.39.41-2.71,1.06-.83,1.67.48,2.31,1.95,2.57a1.46,1.46,0,0,1,.48.09c.49.3,1,.64,1.45,1a11.07,11.07,0,0,1-2,.68c-.64.09-1.41-.32-1.93-.08a1.93,1.93,0,0,0-.91,1.51,2.91,2.91,0,0,0,.81,2c.59.47,1.56.46,2.32.75a11,11,0,0,1,1.55.9Z"/><path d="M115.37,184.88l-1.1-.91a4.44,4.44,0,0,1,1-.81c.6-.25,1.36-.21,1.88-.56s1.66-1.29,1.54-1.62a4.21,4.21,0,0,0-1.79-1.93,9.8,9.8,0,0,0-2.38-.66c-2-.56-3.21-1.8-2.76-4s3.45-3.7,5.57-3.06a1,1,0,0,1,.6.63,1,1,0,0,1-.46.74c-1.17.66-3.56.18-3.11,2.27.18.88,2.21,1.55,3.51,2,2.16.68,3.62,1.76,3.27,4.22C120.87,183.13,118.56,184.66,115.37,184.88Z"/><path d="M179.6,57.63c-.16.25-.28.64-.51.73a.89.89,0,0,1-.82-.23,14.48,14.48,0,0,0-1-1.69A12.36,12.36,0,0,0,175.49,55a22.07,22.07,0,0,0-1.41,2.32,4.43,4.43,0,0,0-.06,1.47c-.09,2-.71,3.58-2.89,4-2.34.46-3.82-.83-4.66-2.77a10.91,10.91,0,0,1-.36-3.22c.64.71,1.23,1.46,1.92,2.12s1.4,1.16,2.11,1.74a29.62,29.62,0,0,0,1.73-2.62,3.66,3.66,0,0,0,.1-1.46c.11-2.24.93-3.88,3.51-3.8C177.52,52.86,179.67,55.45,179.6,57.63Z"/><path d="M67.1,8.44A6.73,6.73,0,0,1,73.94,2a4,4,0,0,1,1.29.54c-.38.41-.72,1.09-1.16,1.16-2.3.39-4.1,1.31-4.58,3.8-.7,3.59,1.92,6.13,5.8,5.79a13.06,13.06,0,0,1,2.55.26,9.41,9.41,0,0,1-2.3,1.51C70.81,16.53,66.93,13.42,67.1,8.44Z"/><path d="M93.33,0a13.66,13.66,0,0,1,2.48,0A4.54,4.54,0,0,1,97.24,1c-.34.28-.66.78-1,.8C94,1.89,94.1,3.41,94.13,5c0,2,.14,4,0,6,0,.62-.75,1.2-1.15,1.81-.39-.65-1-1.26-1.12-1.94-.19-1.81-.12-3.64-.16-5.46,0-1.66.18-3.45-2.32-3.56-.25,0-.48-.64-.72-1,.4-.22.78-.6,1.18-.64,1.16-.08,2.32,0,3.48,0Z"/><path d="M105.84,173.56l1.27.59c-.39.41-.72,1.07-1.18,1.16-1.72.38-1.92,1.52-1.78,3,.2,2.12.45,4.25.51,6.38a6,6,0,0,1-.77,2.05c-.46-.68-1.18-1.31-1.34-2.06-.34-1.6-.34-3.26-.59-4.88-.29-1.89-.18-4.21-3.27-3.71-.22,0-.54-.63-.81-1a3.81,3.81,0,0,1,1.16-.64C101.15,174.13,103.28,173.89,105.84,173.56Z"/><path d="M184.62,72.83c-.12.29-.22.81-.37.82-.37,0-1.07-.08-1.12-.27-.84-3.24-3-2.14-5.06-1.62-1.6.41-3.17.95-4.79,1.25-.59.1-1.29-.34-1.94-.53.49-.54.89-1.36,1.5-1.57,2-.7,4.12-1.19,6.2-1.72,1.4-.36,2.43-.9,2.13-2.69-.07-.41.49-.93.76-1.4.31.34.79.64.91,1C183.48,68.35,184,70.59,184.62,72.83Z"/><path d="M139,13.66c-.78.56-1.81,1-2.3,1.71-1.17,1.79-2,3.8-3.18,5.61-.43.67-1.38,1-2.1,1.49a9.07,9.07,0,0,1,.31-2.69A43.68,43.68,0,0,1,134.28,15c.94-1.59,1.42-3-.75-4-.3-.14-.4-.72-.59-1.1.56-.09,1.24-.43,1.67-.23q2.91,1.39,5.68,3.06c.42.26.56,1,.83,1.5l-1.71.29Z"/><path d="M32.26,145.93a4.07,4.07,0,0,1-.7,1.25q-4,3.31-8.14,6.5c-.28.22-.86,0-1.3.06,0-.58-.21-1.41.09-1.68a41.28,41.28,0,0,1,4.95-4.12c2.06-1.39,2.59-2.71.72-4.66-.45-.47-.44-1.37-.64-2.07a8.06,8.06,0,0,1,2.19,1.18A40.62,40.62,0,0,1,32.26,145.93Z"/><path d="M6.71,94.35c-1.81,0-3.63.07-5.44-.06-.45,0-.85-.7-1.27-1.08.45-.38.88-1.06,1.34-1.07a38,38,0,0,1,5.44.2c2.69.29,4.62-.11,4.31-3.51,0-.44.63-1,1-1.42A9.69,9.69,0,0,1,12.79,89a5.63,5.63,0,0,1,0,1.48c0,4,0,4-4.11,4.06h-2Z"/><path d="M155.8,24.39c-.34.46-.68,1-1.09,1.44-1.1,1.21-2.18,2.45-3.36,3.59-1.82,1.76-3.22,3.43-.25,5.43.39.27.45,1,.67,1.57-.57-.05-1.29.12-1.68-.17-1.05-.77-2-1.74-2.94-2.6s-1.06-1.88-.08-2.91c2.16-2.25,4.24-4.56,6.43-6.78a2.8,2.8,0,0,1,1.65-.47C155.31,23.48,155.52,24,155.8,24.39Z"/><path d="M148.11,18.34c0,.31,0,.7-.12.93-2,2.81-4,5.63-6,8.37-.26.34-1.07.26-1.63.38,0-.56-.3-1.28,0-1.65,1.95-2.83,4-5.61,6-8.37a1.67,1.67,0,0,1,1.22-.36C147.72,17.64,147.91,18.09,148.11,18.34Z"/><path d="M59.44,6.05a16.06,16.06,0,0,0,.49,2c1.2,3.06,2.47,6.08,3.61,9.16.15.38-.35,1-.55,1.52-.4-.16-1.06-.22-1.19-.51q-2.1-5-4-10c-.11-.28.34-.78.53-1.17Z"/><path d="M135.51,169.29c.6.78,1.25,1.25,1.25,1.72a1.62,1.62,0,0,1-1.17,1.12c-.36,0-1.06-.69-1.1-1.12S135,170.05,135.51,169.29Z"/><path d="M49.63,172.93c-.22-.59-.65-1.2-.58-1.75s.67-.93,1-1.39c.44.35,1.13.64,1.24,1.08s-.4,1-.64,1.47Z"/></g></g></svg>